# xmcd
#
# Track frame offsets:
#	150
#	21570
#	43155
#	61137
#	76640
#	89955
#	109975
#	123832
#	138922
#
# Disc length: 2007 seconds
#
# Revision: 4
# Processed by: cddbd v1.5.1PL2 Copyright (c) Steve Scherf et al.
# Submitted via: dBpowerAMP V4.0
#
DISCID=7807d509
DTITLE=Various Artist - Country's Greatest Hits: Southern Country Rock
DYEAR=1990
DGENRE=country
TTITLE0=Lynyrd Skynyrd - Sweet Home Alabama
TTITLE1=Allman Brothers - Ramblin Man
TTITLE2=38 Special - Caught Up In You
TTITLE3=Wet Willie - Keep On Smilin'
TTITLE4=Elvin Bishop - Fooled Around and Fell In Love
TTITLE5=Blackfoot - Highway Song
TTITLE6=Ozark Mountain Daredevils - If You Want To Get To Heaven
TTITLE7=Jerry Jeff Walker - Up Against The Wall Redneck (Mother)
TTITLE8=Johnny Paycheck - Take This Job and Shove It
EXTD=
EXTT0=
EXTT1=
EXTT2=
EXTT3=
EXTT4=
EXTT5=
EXTT6=
EXTT7=
EXTT8=
PLAYORDER=
